<?xml version="1.0" encoding="UTF-8"?>
<svg width="512px" height="512px" viewBox="0 0 512 512" version="1.1" xmlns="http://www.w3.org/2000/svg" xmlns:xlink="http://www.w3.org/1999/xlink">
    <title>LinkedIn</title>
    <g id="LinkedIn" stroke="none" stroke-width="1" fill="none" fill-rule="evenodd">
        <g id="linkedin" transform="translate(-0.000000, 0.000000)" fill="#F6F6F0" fill-rule="nonzero">
            <path d="M475.079076,0 L36.9306385,0 C18.4101685,0 0,14.2378651 0,36.9258033 L0,475.074241 C0,495.943906 17.1290341,512.000022 36.5401472,512.000022 L475.079076,512.000022 C494.864011,512.000022 512.004859,496.544884 512.004859,475.074241 L512.004859,36.4567745 C512.004859,18.8474952 497.763591,0 475.079076,0 Z M192.414298,375.407877 L136.412712,375.407877 L136.412712,215.409373 L192.414298,215.409373 L192.414298,375.407877 Z M164.413505,191.409462 C148.949094,191.409462 136.412712,178.87308 136.412712,163.40867 C136.412712,147.944259 148.949094,135.407877 164.413505,135.407877 C179.877916,135.407877 192.414298,147.944259 192.414298,163.40867 C192.414298,178.87238 179.87901,191.408471 164.4153,191.409462 L164.413505,191.409462 Z M376.412712,375.407877 L328.413789,375.407877 L328.413789,297.449003 C328.413789,278.8554 326.349628,254.939851 300.866214,254.939851 C274.992405,254.939851 271.03819,275.19286 271.03819,296.102811 L271.03819,375.407877 L224.414178,375.407877 L224.414178,215.409373 L269.02339,215.409373 L269.02339,237.003189 L269.710845,237.003189 C276.352059,224.395653 292.585339,215.409373 316.772818,215.409373 C367.099756,215.409373 376.412712,244.307627 376.412712,287.475516 L376.412712,375.407877 Z" id="Shape"></path>
        </g>
    </g>
</svg>