<?xml version="1.0" encoding="UTF-8"?>
<svg width="512px" height="512px" viewBox="0 0 512 512" version="1.1" xmlns="http://www.w3.org/2000/svg" xmlns:xlink="http://www.w3.org/1999/xlink">
    <title>Behance</title>
    <g id="Behance" stroke="none" stroke-width="1" fill="none" fill-rule="evenodd">
        <g id="behance" transform="translate(-0.000000, -0.000000)" fill="#F6F6F0" fill-rule="nonzero">
            <path d="M183.988439,234.998247 L140,234.998247 L140,190.001532 L183.988439,190.001532 C183.988439,190.001532 210,189.391506 210,212.514414 C210,235.637322 183.988439,234.998247 183.988439,234.998247 L183.988439,234.998247 Z" id="Path"></path>
            <path d="M217,291.970691 C217,319.699633 185.88128,318.998375 185.88128,318.998375 L139,318.998375 L139,265.001445 L185.794194,265.001445 C185.794194,265.001445 217,264.329405 217,291.970691 Z" id="Path"></path>
            <path d="M344.145455,235.258182 C328.174545,235.258182 315.054545,247.214545 312.436364,265.949091 L375.854545,265.949091 C373.352727,247.272727 360.087273,235.258182 344.145455,235.258182 L344.145455,235.258182 Z M344.145455,235.258182 C328.174545,235.258182 315.054545,247.214545 312.436364,265.949091 L375.854545,265.949091 C373.352727,247.272727 360.087273,235.258182 344.145455,235.258182 L344.145455,235.258182 Z M474.457152,0 L35.9052747,0 C17.8712483,0 1.13686838e-13,15.9422708 1.13686838e-13,35.7573915 L1.13686838e-13,474.491655 C1.13686838e-13,495.747583 17.1327706,512 35.9052747,512 L475.324224,512 C492.737564,512 512.004981,498.397106 512.004981,474.209203 L512.004981,38.8082621 C512.004981,38.6554549 512.004981,35.1905133 512.004981,35.0383998 C511.507171,19.6721096 498.585922,0 474.457152,0 Z M303.883636,168.727273 L384,168.727273 L384,188.683636 L303.883636,188.683636 L303.883636,168.727273 Z M227.461818,345.396364 C216.436364,350.836364 202.589091,352.552727 189.643636,352.552727 L96,352.552727 L96,155.869091 L198.952727,155.869091 C211.694545,155.869091 251.141818,163.461818 251.316364,201.367273 C251.316364,227.549091 236.770909,239.534545 224.232727,245.294545 C224.232727,245.294545 256.930909,255.010909 259.549091,283.927273 C262.167273,312.843636 256.989091,330.821818 227.461818,345.396364 L227.461818,345.396364 Z M415.563636,291.141818 L312.436364,291.141818 C311.447273,313.861818 328.058182,327.418182 346.938182,327.418182 C360.324118,327.446862 372.632604,320.084149 378.938182,308.276364 L412.712727,308.276364 C403.432727,342.08 376.232727,356.16 344.087273,356.16 C301.992727,356.16 272.058182,322.414545 272.058182,280.756364 C272.058182,239.098182 304.32,205.323636 344.087273,205.323636 C383.854545,205.323636 416,239.098182 416,280.756364 C416,284.363636 416,287.796364 415.563636,291.141818 L415.563636,291.141818 Z M344.145455,235.258182 C328.174545,235.258182 315.054545,247.214545 312.436364,265.949091 L375.854545,265.949091 C373.352727,247.272727 360.087273,235.258182 344.145455,235.258182 L344.145455,235.258182 Z" id="Shape"></path>
        </g>
    </g>
</svg>