<?xml version="1.0" encoding="UTF-8"?>
<svg width="512px" height="512px" viewBox="0 0 512 512" version="1.1" xmlns="http://www.w3.org/2000/svg" xmlns:xlink="http://www.w3.org/1999/xlink">
    <title>Instagram</title>
    <g id="Instagram" stroke="none" stroke-width="1" fill="none" fill-rule="evenodd">
        <g id="instagram" transform="translate(0.000000, 0.000000)" fill="#F6F6F0" fill-rule="nonzero">
            <path d="M358.69653,178.305043 C356.585644,172.584996 353.218028,167.407549 348.842228,163.157772 C344.592451,158.781972 339.418504,155.414356 333.694957,153.30347 C329.053109,151.50064 322.079834,149.354748 309.235985,148.770141 C295.341945,148.136525 291.176183,148 256.00175,148 C220.823817,148 216.658055,148.133025 202.767515,148.76664 C189.923667,149.354748 182.946891,151.50064 178.308543,153.30347 C172.584996,155.414356 167.407549,158.781972 163.161273,163.157772 C158.785472,167.407549 155.417857,172.581496 153.30347,178.305043 C151.50064,182.946891 149.354748,189.923667 148.770141,202.767515 C148.136525,216.658055 148,220.823817 148,256.00175 C148,291.176183 148.136525,295.341945 148.770141,309.235985 C149.354748,322.079834 151.50064,329.053109 153.30347,333.694958 C155.417857,339.418505 158.781972,344.592451 163.157772,348.842228 C167.407549,353.218028 172.581495,356.585645 178.305042,358.69653 C182.946891,360.50286 189.923667,362.648752 202.767515,363.23336 C216.658055,363.866976 220.820317,364 255.99825,364 C291.179683,364 295.345445,363.866976 309.232485,363.23336 C322.076333,362.648752 329.053109,360.50286 333.694957,358.69653 C345.184059,354.26472 354.26472,345.184059 358.69653,333.694958 C360.49936,329.053109 362.645252,322.079834 363.23336,309.235985 C363.866975,295.341945 364,291.176183 364,256.00175 C364,220.823817 363.866975,216.658055 363.23336,202.767515 C362.648752,189.923667 360.50286,182.946891 358.69653,178.305043 L358.69653,178.305043 Z M256.001759,324 C218.445083,324 188,293.557648 188,256 C188,218.442352 218.445083,188 256.001759,188 C293.554917,188 324,218.442352 324,256 C324,293.557648 293.554917,324 256.001759,324 Z M326,202 C317.163861,202 310,194.836139 310,186 C310,177.163861 317.163861,170 326,170 C334.836139,170 342,177.163861 342,186 C341.996457,194.836139 334.836139,202 326,202 Z" id="Shape"></path>
            <path d="M300,256 C300,280.30102 280.30102,300 256,300 C231.69898,300 212,280.30102 212,256 C212,231.69898 231.69898,212 256,212 C280.30102,212 300,231.69898 300,256 Z" id="Path"></path>
            <path d="M36.925781,0 C16.53125,0 0,16.53125 0,36.925781 L0,475.074219 C0,495.46875 16.53125,512 36.925781,512 L475.074219,512 C495.46875,512 512,495.46875 512,475.074219 L512,36.925781 C512,16.53125 495.46875,0 475.074219,0 L36.925781,0 Z M387.203763,310.421237 C386.56537,324.472895 384.330994,334.066327 381.068878,342.463648 C374.211416,360.194834 360.194834,374.211416 342.463648,381.068878 C334.069834,384.330994 324.472895,386.561863 310.424745,387.203763 C296.348533,387.845663 291.851722,388 256.003507,388 C220.151786,388 215.658482,387.845663 201.578763,387.203763 C187.530612,386.561863 177.933673,384.330994 169.53986,381.068878 C160.728635,377.754146 152.752232,372.559312 146.157844,365.842156 C139.444197,359.251276 134.249362,351.271365 130.93463,342.463648 C127.672513,334.069834 125.438137,324.472895 124.799745,310.424745 C124.150829,296.345026 124,291.848214 124,256 C124,220.151786 124.150829,215.654974 124.796237,201.578763 C125.43463,187.527105 127.665497,177.933673 130.927615,169.536352 C134.242347,160.728635 139.440688,152.748724 146.157844,146.157844 C152.748724,139.440688 160.728635,134.245854 169.536352,130.931122 C177.933673,127.669006 187.527105,125.438137 201.578763,124.796237 C215.654974,124.154337 220.151786,124 256,124 C291.848214,124 296.345026,124.154337 310.421237,124.799745 C324.472895,125.438137 334.066327,127.669006 342.463648,130.927615 C351.271365,134.242347 359.251276,139.440688 365.845663,146.157844 C372.559312,152.752232 377.757653,160.728635 381.068878,169.536352 C384.334503,177.933673 386.56537,187.527105 387.207271,201.578763 C387.849171,215.654974 388,220.151786 388,256 C388,291.848214 387.849171,296.345026 387.203763,310.421237 L387.203763,310.421237 Z" id="Shape"></path>
        </g>
    </g>
</svg>