<?xml version="1.0" encoding="UTF-8"?>
<svg width="70px" height="70px" viewBox="0 0 70 70" version="1.1" xmlns="http://www.w3.org/2000/svg" xmlns:xlink="http://www.w3.org/1999/xlink">
    <title>Logo</title>
    <g id="Logo" stroke="none" stroke-width="1" fill="none" fill-rule="evenodd">
        <g id="Logo_gK">
            <circle id="Oval" stroke="#0B0B0B" stroke-width="2" cx="35" cy="35" r="34"></circle>
            <g id="gK." transform="translate(15.817969, 24.200000)" fill="#0B0B0B" fill-rule="nonzero">
                <path d="M15.1832812,1.2421875 L15.6548437,4.18125 C15.5667187,4.16625 15.4778906,4.15492188 15.3883594,4.14726562 C15.2988281,4.13960938 15.21125,4.13578125 15.125625,4.13578125 C14.2065625,4.13578125 13.5124219,4.3421875 13.0432031,4.755 C12.5739844,5.1678125 12.339375,5.73578125 12.339375,6.45890625 L10.6640625,5.76609375 C10.6640625,4.95578125 10.8250781,4.20546875 11.1471094,3.51515625 C11.4691406,2.82484375 11.9439844,2.27148438 12.5716406,1.85507813 C13.1992969,1.43867188 13.9515625,1.23046875 14.8284375,1.23046875 C14.87875,1.23046875 14.9360156,1.23046875 15.0002344,1.23046875 C15.0644531,1.23046875 15.1254687,1.234375 15.1832812,1.2421875 Z M10.2585938,16.9907813 C11.8760937,16.9907813 13.1266406,17.3404687 14.0102344,18.0398437 C14.8938281,18.7392187 15.335625,19.7201562 15.335625,20.9826563 C15.335625,22.1223437 15.0011719,23.0844531 14.3322656,23.8689844 C13.6633594,24.6535156 12.7382812,25.2464844 11.5570312,25.6478906 C10.3757812,26.0492969 9.00265625,26.25 7.43765625,26.25 C4.85703125,26.25 2.97226562,25.8879688 1.78335937,25.1639063 C0.594453125,24.4398437 0,23.5026562 0,22.3523437 C0,21.5370312 0.3125,20.8467188 0.9375,20.2814062 C1.5625,19.7160937 2.60375,19.4085938 4.06125,19.3589063 L3.9084375,19.831875 C2.88625,19.659375 2.09835937,19.3163281 1.54476562,18.8027344 C0.991171875,18.2891406 0.714375,17.580625 0.714375,16.6771875 C0.714375,15.7659375 1.06875,15.0114844 1.7775,14.4138281 C2.48625,13.8161719 3.4559375,13.4739062 4.6865625,13.3870312 L6.45890625,14.23125 L6.045,14.23125 C5.1940625,14.2934375 4.59210937,14.4663281 4.23914062,14.7499219 C3.88617187,15.0335156 3.7096875,15.3596875 3.7096875,15.7284375 C3.7096875,16.1515625 3.87289062,16.4677344 4.19929687,16.6769531 C4.52570313,16.8861719 5.001875,16.9907813 5.6278125,16.9907813 L10.2585938,16.9907813 Z M7.453125,23.4192188 C8.4915625,23.4192188 9.34773437,23.3334375 10.0216406,23.161875 C10.6955469,22.9903125 11.1973437,22.7620312 11.5270312,22.4770312 C11.8567187,22.1920313 12.0215625,21.8751563 12.0215625,21.5264062 C12.0215625,21.1457812 11.8730469,20.8429687 11.5760156,20.6179687 C11.2789844,20.3929688 10.7414062,20.2804688 9.96328125,20.2804688 L4.8759375,20.2804688 C4.403125,20.2804688 4.01132812,20.4017969 3.70054687,20.6444531 C3.38976562,20.8871094 3.234375,21.2148438 3.234375,21.6276563 C3.234375,22.1851562 3.60804687,22.623125 4.35539063,22.9415625 C5.10273437,23.26 6.1353125,23.4192188 7.453125,23.4192188 Z M7.48265625,4.5 C8.89546875,4.5 10.114375,4.70546875 11.139375,5.11640625 C12.164375,5.52734375 12.9520313,6.1109375 13.5023437,6.8671875 C14.0526562,7.6234375 14.3278125,8.53203125 14.3278125,9.59296875 C14.3278125,10.6335938 14.0526562,11.5351563 13.5023437,12.2976562 C12.9520313,13.0601563 12.164375,13.645 11.139375,14.0521875 C10.114375,14.459375 8.89546875,14.6629688 7.48265625,14.6629688 C5.25921875,14.6629688 3.56242187,14.2088281 2.39226562,13.3005469 C1.22210937,12.3922656 0.63703125,11.1564063 0.63703125,9.59296875 C0.63703125,8.53203125 0.9153125,7.6234375 1.471875,6.8671875 C2.0284375,6.1109375 2.81804687,5.52734375 3.84070312,5.11640625 C4.86335937,4.70546875 6.07734375,4.5 7.48265625,4.5 Z M7.48265625,7.06546875 C6.68578125,7.06546875 6.02851562,7.2878125 5.51085938,7.7325 C4.99320312,8.1771875 4.734375,8.7934375 4.734375,9.58125 C4.734375,10.356875 4.99320312,10.9700781 5.51085938,11.4208594 C6.02851562,11.8716406 6.68578125,12.0970313 7.48265625,12.0970313 C8.27921875,12.0970313 8.93632812,11.8716406 9.45398437,11.4208594 C9.97164062,10.9700781 10.2304687,10.356875 10.2304687,9.58125 C10.2304687,8.7934375 9.97164062,8.1771875 9.45398437,7.7325 C8.93632812,7.2878125 8.27921875,7.06546875 7.48265625,7.06546875 Z" id="Shape"></path>
                <path d="M35.3056567,0 L26.2550317,10.28625 L25.9180005,9.946875 L20.972688,15.5704687 L20.3572192,11.72625 L30.5253442,0 L35.3056567,0 Z M22.3892505,0 L22.3892505,19.8 L18.2450317,19.8 L18.2450317,0 L22.3892505,0 Z M27.4072192,6.8296875 L35.5667505,19.8 L30.8056567,19.8 L24.2300317,9.13734375 L27.4072192,6.8296875 Z" id="Shape"></path>
                <path d="M40.2596594,15.219375 C41.0677844,15.219375 41.70505,15.4374219 42.1714563,15.8735156 C42.6378625,16.3096094 42.8710657,16.90125 42.8710657,17.6484375 C42.8710657,18.395625 42.6378625,18.9871875 42.1714563,19.423125 C41.70505,19.8590625 41.0677844,20.0770312 40.2596594,20.0770312 C39.4593469,20.0770312 38.8241125,19.8590625 38.3539563,19.423125 C37.8838,18.9871875 37.6487219,18.395625 37.6487219,17.6484375 C37.6487219,16.90125 37.8838,16.3096094 38.3539563,15.8735156 C38.8241125,15.4374219 39.4593469,15.219375 40.2596594,15.219375 Z" id="Path"></path>
            </g>
        </g>
    </g>
</svg>